<svg width="69" height="49" viewBox="0 0 69 49" fill="none" xmlns="http://www.w3.org/2000/svg">
<path d="M3.00016 9.8291L24.7984 20.7575C25.753 21.236 25.753 22.0119 24.7984 22.4905L3 33.4188" stroke="#F06543" stroke-width="5" stroke-linecap="round"/>
<path d="M65.6647 46L32.2684 46" stroke="#F06543" stroke-width="5" stroke-linecap="round"/>
<path d="M52.461 24.9167V0H58.9104V24.9167C58.9104 27.292 58.4179 29.3316 57.4329 31.0353C56.4479 32.7226 55.1033 34.0167 53.3991 34.9177C51.6949 35.8187 49.7718 36.2692 47.6298 36.2692C45.4253 36.2692 43.4709 35.8843 41.7667 35.1143C40.0625 34.328 38.7257 33.1321 37.7563 31.5267C36.8026 29.9213 36.3257 27.8818 36.3257 25.4081H42.7986C42.7986 26.7514 42.9941 27.8326 43.3849 28.6517C43.7758 29.4708 44.3308 30.0605 45.05 30.4209C45.7849 30.7813 46.6448 30.9615 47.6298 30.9615C48.5835 30.9615 49.42 30.7322 50.1392 30.2735C50.8741 29.7984 51.4447 29.1104 51.8513 28.2094C52.2578 27.3084 52.461 26.2108 52.461 24.9167Z" fill="white"/>
</svg>
